<svg width="234" height="256" viewBox="0 0 234 256" fill="none" xmlns="http://www.w3.org/2000/svg">
<g filter="url(#filter0_d_2_1507)">
<path d="M188.217 73.8235C188.217 114.595 157.851 147.647 120.391 147.647C82.932 147.647 52.5652 114.595 52.5652 73.8235C52.5652 33.0519 82.932 0 120.391 0C157.851 0 188.217 33.0519 188.217 73.8235Z" fill="#0C0F0A"/>
<path d="M188.217 177.176C188.217 217.948 157.851 251 120.391 251C82.932 251 52.5652 217.948 52.5652 177.176C52.5652 136.405 82.932 103.353 120.391 103.353C157.851 103.353 188.217 136.405 188.217 177.176Z" fill="#0C0F0A"/>
<path d="M135.652 125.5C135.652 166.272 105.285 199.324 67.8261 199.324C30.3668 199.324 0 166.272 0 125.5C0 84.7284 30.3668 51.6765 67.8261 51.6765C105.285 51.6765 135.652 84.7284 135.652 125.5Z" fill="#0C0F0A"/>
<path d="M234 125.5C234 166.272 203.633 199.324 166.174 199.324C128.715 199.324 98.3478 166.272 98.3478 125.5C98.3478 84.7284 128.715 51.6765 166.174 51.6765C203.633 51.6765 234 84.7284 234 125.5Z" fill="#0C0F0A"/>
</g>
<path fill-rule="evenodd" clip-rule="evenodd" d="M127.627 111.714H113.956V125.385L100.286 125.385V139.055H113.956V152.726H127.627V139.055H141.297V125.385L127.627 125.385V111.714Z" fill="white"/>
<defs>
<filter id="filter0_d_2_1507" x="0" y="0" width="234" height="256" filterUnits="userSpaceOnUse" color-interpolation-filters="sRGB">
<feFlood flood-opacity="0" result="BackgroundImageFix"/>
<feColorMatrix in="SourceAlpha" type="matrix" values="0 0 0 0 0 0 0 0 0 0 0 0 0 0 0 0 0 0 127 0" result="hardAlpha"/>
<feOffset dy="5"/>
<feComposite in2="hardAlpha" operator="out"/>
<feColorMatrix type="matrix" values="0 0 0 0 0 0 0 0 0 0 0 0 0 0 0 0 0 0 0.25 0"/>
<feBlend mode="normal" in2="BackgroundImageFix" result="effect1_dropShadow_2_1507"/>
<feBlend mode="normal" in="SourceGraphic" in2="effect1_dropShadow_2_1507" result="shape"/>
</filter>
</defs>
</svg>
