<svg width="430" height="568" viewBox="0 0 430 568" fill="none" xmlns="http://www.w3.org/2000/svg">
<circle cx="35.3922" cy="35.3922" r="35.3922" transform="matrix(-0.849773 0.527149 0.527149 0.849773 -5.03845 0)" fill="#0C0F0A"/>
<circle cx="35.3922" cy="35.3922" r="35.3922" transform="matrix(-0.849773 0.527149 0.527149 0.849773 -6.84937 13.0959)" fill="#FBFF12"/>
<circle cx="35.3922" cy="35.3922" r="35.3922" transform="matrix(-0.849773 0.527149 0.527149 0.849773 -4.35439 28.6151)" fill="#41EAD4"/>
<circle cx="35.3922" cy="35.3922" r="35.3922" transform="matrix(-0.849773 0.527149 0.527149 0.849773 2.16252 37.0818)" fill="#FF206E"/>
<circle cx="35.3922" cy="35.3922" r="35.3922" transform="matrix(-0.849773 0.527149 0.527149 0.849773 8.39153 46.1264)" fill="#0C0F0A"/>
<circle cx="35.3922" cy="35.3922" r="35.3922" transform="matrix(-0.849773 0.527149 0.527149 0.849773 19.031 55.8629)" fill="#FBFF12"/>
<circle cx="35.3922" cy="35.3922" r="35.3922" transform="matrix(-0.849773 0.527149 0.527149 0.849773 30.6551 61.2371)" fill="#41EAD4"/>
<circle cx="35.3922" cy="35.3922" r="35.3922" transform="matrix(-0.849773 0.527149 0.527149 0.849773 43.503 63.2196)" fill="#FF206E"/>
<circle cx="35.3922" cy="35.3922" r="35.3922" transform="matrix(0.945295 -0.326216 -0.326216 -0.945295 26.5682 163.074)" fill="#41EAD4"/>
<circle cx="35.3922" cy="35.3922" r="35.3922" transform="matrix(0.945295 -0.326216 -0.326216 -0.945295 36.7164 170.885)" fill="#FBFF12"/>
<circle cx="35.3922" cy="35.3922" r="35.3922" transform="matrix(0.945295 -0.326216 -0.326216 -0.945295 44.9397 182.733)" fill="#0C0F0A"/>
<circle cx="35.3922" cy="35.3922" r="35.3922" transform="matrix(0.945295 -0.326216 -0.326216 -0.945295 49.0148 192.931)" fill="#FF206E"/>
<circle cx="35.3922" cy="35.3922" r="35.3922" transform="matrix(0.945295 -0.326216 -0.326216 -0.945295 53.4985 202.629)" fill="#41EAD4"/>
<circle cx="35.3922" cy="35.3922" r="35.3922" transform="matrix(0.945295 -0.326216 -0.326216 -0.945295 52.5003 218.316)" fill="#FBFF12"/>
<circle cx="35.3922" cy="35.3922" r="35.3922" transform="matrix(0.945295 -0.326216 -0.326216 -0.945295 47.8388 230.688)" fill="#0C0F0A"/>
<circle cx="35.3922" cy="35.3922" r="35.3922" transform="matrix(-0.849773 0.527149 0.527149 0.849773 79.4588 150.14)" fill="#FBFF12"/>
<circle cx="35.3922" cy="35.3922" r="35.3922" transform="matrix(-0.849773 0.527149 0.527149 0.849773 81.9536 165.66)" fill="#41EAD4"/>
<circle cx="35.3922" cy="35.3922" r="35.3922" transform="matrix(-0.849773 0.527149 0.527149 0.849773 88.4706 174.126)" fill="#FF206E"/>
<circle cx="35.3922" cy="35.3922" r="35.3922" transform="matrix(-0.849773 0.527149 0.527149 0.849773 94.6996 183.171)" fill="#0C0F0A"/>
<circle cx="35.3922" cy="35.3922" r="35.3922" transform="matrix(-0.849773 0.527149 0.527149 0.849773 105.339 192.907)" fill="#FBFF12"/>
<circle cx="35.3922" cy="35.3922" r="35.3922" transform="matrix(-0.849773 0.527149 0.527149 0.849773 116.963 198.281)" fill="#41EAD4"/>
<circle cx="35.3922" cy="35.3922" r="35.3922" transform="matrix(-0.849773 0.527149 0.527149 0.849773 129.811 200.264)" fill="#FF206E"/>
<circle cx="35.3922" cy="35.3922" r="35.3922" transform="matrix(0.945295 -0.326216 -0.326216 -0.945295 112.876 300.119)" fill="#41EAD4"/>
<circle cx="35.3922" cy="35.3922" r="35.3922" transform="matrix(0.945295 -0.326216 -0.326216 -0.945295 123.024 307.93)" fill="#FBFF12"/>
<circle cx="35.3922" cy="35.3922" r="35.3922" transform="matrix(0.945295 -0.326216 -0.326216 -0.945295 131.248 319.778)" fill="#0C0F0A"/>
<circle cx="35.3922" cy="35.3922" r="35.3922" transform="matrix(0.945295 -0.326216 -0.326216 -0.945295 135.323 329.976)" fill="#FF206E"/>
<circle cx="35.3922" cy="35.3922" r="35.3922" transform="matrix(0.945295 -0.326216 -0.326216 -0.945295 139.807 339.674)" fill="#41EAD4"/>
<circle cx="35.3922" cy="35.3922" r="35.3922" transform="matrix(0.945295 -0.326216 -0.326216 -0.945295 138.808 355.361)" fill="#FBFF12"/>
<circle cx="35.3922" cy="35.3922" r="35.3922" transform="matrix(0.945295 -0.326216 -0.326216 -0.945295 134.147 367.732)" fill="#0C0F0A"/>
<circle cx="35.3922" cy="35.3922" r="35.3922" transform="matrix(-0.849773 0.527149 0.527149 0.849773 167.79 282.857)" fill="#FBFF12"/>
<circle cx="35.3922" cy="35.3922" r="35.3922" transform="matrix(-0.849773 0.527149 0.527149 0.849773 170.285 298.376)" fill="#41EAD4"/>
<circle cx="35.3922" cy="35.3922" r="35.3922" transform="matrix(-0.849773 0.527149 0.527149 0.849773 176.802 306.843)" fill="#FF206E"/>
<circle cx="35.3922" cy="35.3922" r="35.3922" transform="matrix(-0.849773 0.527149 0.527149 0.849773 183.031 315.887)" fill="#0C0F0A"/>
<circle cx="35.3922" cy="35.3922" r="35.3922" transform="matrix(-0.849773 0.527149 0.527149 0.849773 193.67 325.624)" fill="#FBFF12"/>
<circle cx="35.3922" cy="35.3922" r="35.3922" transform="matrix(-0.849773 0.527149 0.527149 0.849773 205.294 330.998)" fill="#41EAD4"/>
<circle cx="35.3922" cy="35.3922" r="35.3922" transform="matrix(-0.849773 0.527149 0.527149 0.849773 218.142 332.981)" fill="#FF206E"/>
<circle cx="35.3922" cy="35.3922" r="35.3922" transform="matrix(0.945295 -0.326216 -0.326216 -0.945295 201.207 432.835)" fill="#41EAD4"/>
<circle cx="35.3922" cy="35.3922" r="35.3922" transform="matrix(0.945295 -0.326216 -0.326216 -0.945295 211.355 440.646)" fill="#FBFF12"/>
<circle cx="35.3922" cy="35.3922" r="35.3922" transform="matrix(0.945295 -0.326216 -0.326216 -0.945295 219.579 452.495)" fill="#0C0F0A"/>
<circle cx="35.3922" cy="35.3922" r="35.3922" transform="matrix(0.945295 -0.326216 -0.326216 -0.945295 223.654 462.692)" fill="#FF206E"/>
<circle cx="35.3922" cy="35.3922" r="35.3922" transform="matrix(0.945295 -0.326216 -0.326216 -0.945295 228.138 472.39)" fill="#41EAD4"/>
<circle cx="35.3922" cy="35.3922" r="35.3922" transform="matrix(0.945295 -0.326216 -0.326216 -0.945295 227.139 488.077)" fill="#FBFF12"/>
<circle cx="35.3922" cy="35.3922" r="35.3922" transform="matrix(0.945295 -0.326216 -0.326216 -0.945295 222.478 500.448)" fill="#0C0F0A"/>
<circle cx="35.3922" cy="35.3922" r="35.3922" transform="matrix(-0.849773 0.527149 0.527149 0.849773 258.151 416)" fill="#FBFF12"/>
<circle cx="35.3922" cy="35.3922" r="35.3922" transform="matrix(-0.849773 0.527149 0.527149 0.849773 269.775 421.374)" fill="#41EAD4"/>
<circle cx="35.3922" cy="35.3922" r="35.3922" transform="matrix(-0.849773 0.527149 0.527149 0.849773 282.623 423.357)" fill="#FF206E"/>
<circle cx="35.3922" cy="35.3922" r="35.3922" transform="matrix(0.945295 -0.326216 -0.326216 -0.945295 265.688 523.211)" fill="#41EAD4"/>
<circle cx="35.3922" cy="35.3922" r="35.3922" transform="matrix(0.945295 -0.326216 -0.326216 -0.945295 275.836 531.023)" fill="#FBFF12"/>
<circle cx="35.3922" cy="35.3922" r="35.3922" transform="matrix(0.945295 -0.326216 -0.326216 -0.945295 284.059 542.871)" fill="#0C0F0A"/>
<circle cx="35.3922" cy="35.3922" r="35.3922" transform="matrix(0.945295 -0.326216 -0.326216 -0.945295 288.134 553.068)" fill="#FF206E"/>
<circle cx="35.3922" cy="35.3922" r="35.3922" transform="matrix(0.945295 -0.326216 -0.326216 -0.945295 292.618 562.766)" fill="#41EAD4"/>
<circle cx="35.3922" cy="35.3922" r="35.3922" transform="matrix(0.945295 -0.326216 -0.326216 -0.945295 291.62 578.453)" fill="#FBFF12"/>
<circle cx="35.3922" cy="35.3922" r="35.3922" transform="matrix(0.945295 -0.326216 -0.326216 -0.945295 286.958 590.825)" fill="#0C0F0A"/>
<circle cx="35.3922" cy="35.3922" r="35.3922" transform="matrix(-0.849773 0.527149 0.527149 0.849773 328.151 508)" fill="#FBFF12"/>
<circle cx="35.3922" cy="35.3922" r="35.3922" transform="matrix(-0.849773 0.527149 0.527149 0.849773 339.775 513.374)" fill="#41EAD4"/>
<circle cx="35.3922" cy="35.3922" r="35.3922" transform="matrix(-0.849773 0.527149 0.527149 0.849773 352.623 515.357)" fill="#FF206E"/>
<circle cx="35.3922" cy="35.3922" r="35.3922" transform="matrix(0.945295 -0.326216 -0.326216 -0.945295 335.688 615.211)" fill="#41EAD4"/>
<circle cx="35.3922" cy="35.3922" r="35.3922" transform="matrix(0.945295 -0.326216 -0.326216 -0.945295 345.836 623.023)" fill="#FBFF12"/>
<circle cx="35.3922" cy="35.3922" r="35.3922" transform="matrix(0.945295 -0.326216 -0.326216 -0.945295 354.059 634.871)" fill="#0C0F0A"/>
<circle cx="35.3922" cy="35.3922" r="35.3922" transform="matrix(0.945295 -0.326216 -0.326216 -0.945295 358.134 645.068)" fill="#FF206E"/>
<circle cx="35.3922" cy="35.3922" r="35.3922" transform="matrix(0.945295 -0.326216 -0.326216 -0.945295 362.618 654.766)" fill="#41EAD4"/>
</svg>
