<svg width="117" height="649" viewBox="0 0 117 649" fill="none" xmlns="http://www.w3.org/2000/svg">
<circle cx="-0.630923" cy="37.3691" r="35.3922" transform="rotate(-3.29699 -0.630923 37.3691)" fill="#0C0F0A"/>
<circle cx="13.3691" cy="39.3691" r="35.3922" transform="rotate(-3.29699 13.3691 39.3691)" fill="#FBFF12"/>
<circle cx="31.3691" cy="43.3691" r="35.3922" transform="rotate(-3.29699 31.3691 43.3691)" fill="#41EAD4"/>
<circle cx="47.3691" cy="47.3691" r="35.3922" transform="rotate(-3.29699 47.3691 47.3691)" fill="#FF206E"/>
<circle cx="59.3691" cy="55.3691" r="35.3922" transform="rotate(-3.29699 59.3691 55.3691)" fill="#0C0F0A"/>
<circle cx="66.3691" cy="62.3691" r="35.3922" transform="rotate(-3.29699 66.3691 62.3691)" fill="#FBFF12"/>
<circle cx="70.3691" cy="75.3691" r="35.3922" transform="rotate(-3.29699 70.3691 75.3691)" fill="#41EAD4"/>
<circle cx="66.8059" cy="85.8456" r="35.3922" transform="rotate(-3.29699 66.8059 85.8456)" fill="#FF206E"/>
<circle cx="35.3922" cy="35.3922" r="35.3922" transform="matrix(-0.998345 -0.0575117 -0.0575117 0.998345 93.2245 62.9653)" fill="#0C0F0A"/>
<circle cx="35.3922" cy="35.3922" r="35.3922" transform="matrix(-0.998345 -0.0575117 -0.0575117 0.998345 84.2111 72.6368)" fill="#FBFF12"/>
<circle cx="35.3922" cy="35.3922" r="35.3922" transform="matrix(-0.998345 -0.0575117 -0.0575117 0.998345 77.326 86.7673)" fill="#41EAD4"/>
<circle cx="35.3922" cy="35.3922" r="35.3922" transform="matrix(-0.998345 -0.0575117 -0.0575117 0.998345 77.7876 97.4418)" fill="#FF206E"/>
<circle cx="35.3922" cy="35.3922" r="35.3922" transform="matrix(-0.998345 -0.0575117 -0.0575117 0.998345 77.6813 108.423)" fill="#0C0F0A"/>
<circle cx="35.3922" cy="35.3922" r="35.3922" transform="matrix(-0.998345 -0.0575117 -0.0575117 0.998345 80.7851 122.507)" fill="#FBFF12"/>
<circle cx="35.3922" cy="35.3922" r="35.3922" transform="matrix(-0.998345 -0.0575117 -0.0575117 0.998345 87.2031 133.589)" fill="#41EAD4"/>
<circle cx="35.3922" cy="35.3922" r="35.3922" transform="matrix(-0.998345 -0.0575117 -0.0575117 0.998345 96.573 142.601)" fill="#FF206E"/>
<circle cx="35.3922" cy="35.3922" r="35.3922" transform="matrix(0.96092 0.276824 0.276824 -0.96092 25.2884 214.547)" fill="#41EAD4"/>
<circle cx="35.3922" cy="35.3922" r="35.3922" transform="matrix(0.96092 0.276824 0.276824 -0.96092 29.0974 226.773)" fill="#FBFF12"/>
<circle cx="35.3922" cy="35.3922" r="35.3922" transform="matrix(0.96092 0.276824 0.276824 -0.96092 29.0102 241.195)" fill="#0C0F0A"/>
<circle cx="35.3922" cy="35.3922" r="35.3922" transform="matrix(0.96092 0.276824 0.276824 -0.96092 26.4785 251.881)" fill="#FF206E"/>
<circle cx="35.3922" cy="35.3922" r="35.3922" transform="matrix(0.96092 0.276824 0.276824 -0.96092 24.5686 262.393)" fill="#41EAD4"/>
<circle cx="35.3922" cy="35.3922" r="35.3922" transform="matrix(0.96092 0.276824 0.276824 -0.96092 14.7296 274.652)" fill="#FBFF12"/>
<circle cx="35.3922" cy="35.3922" r="35.3922" transform="matrix(0.96092 0.276824 0.276824 -0.96092 3.80095 282.091)" fill="#0C0F0A"/>
<circle cx="35.3922" cy="35.3922" r="35.3922" transform="matrix(-0.998345 -0.0575117 -0.0575117 0.998345 75.9943 234.386)" fill="#FBFF12"/>
<circle cx="35.3922" cy="35.3922" r="35.3922" transform="matrix(-0.998345 -0.0575117 -0.0575117 0.998345 69.1092 248.516)" fill="#41EAD4"/>
<circle cx="35.3922" cy="35.3922" r="35.3922" transform="matrix(-0.998345 -0.0575117 -0.0575117 0.998345 69.5708 259.191)" fill="#FF206E"/>
<circle cx="35.3922" cy="35.3922" r="35.3922" transform="matrix(-0.998345 -0.0575117 -0.0575117 0.998345 69.4645 270.172)" fill="#0C0F0A"/>
<circle cx="35.3922" cy="35.3922" r="35.3922" transform="matrix(-0.998345 -0.0575117 -0.0575117 0.998345 72.5682 284.256)" fill="#FBFF12"/>
<circle cx="35.3922" cy="35.3922" r="35.3922" transform="matrix(-0.998345 -0.0575117 -0.0575117 0.998345 78.9863 295.338)" fill="#41EAD4"/>
<circle cx="35.3922" cy="35.3922" r="35.3922" transform="matrix(-0.998345 -0.0575117 -0.0575117 0.998345 88.3562 304.35)" fill="#FF206E"/>
<circle cx="35.3922" cy="35.3922" r="35.3922" transform="matrix(0.96092 0.276824 0.276824 -0.96092 17.0716 376.296)" fill="#41EAD4"/>
<circle cx="35.3922" cy="35.3922" r="35.3922" transform="matrix(0.96092 0.276824 0.276824 -0.96092 20.8806 388.522)" fill="#FBFF12"/>
<circle cx="35.3922" cy="35.3922" r="35.3922" transform="matrix(0.96092 0.276824 0.276824 -0.96092 20.7934 402.944)" fill="#0C0F0A"/>
<circle cx="35.3922" cy="35.3922" r="35.3922" transform="matrix(0.96092 0.276824 0.276824 -0.96092 18.2617 413.63)" fill="#FF206E"/>
<circle cx="35.3922" cy="35.3922" r="35.3922" transform="matrix(0.96092 0.276824 0.276824 -0.96092 16.3518 424.143)" fill="#41EAD4"/>
<circle cx="35.3922" cy="35.3922" r="35.3922" transform="matrix(0.96092 0.276824 0.276824 -0.96092 6.51286 436.401)" fill="#FBFF12"/>
<circle cx="35.3922" cy="35.3922" r="35.3922" transform="matrix(0.96092 0.276824 0.276824 -0.96092 -4.41583 443.84)" fill="#0C0F0A"/>
<circle cx="35.3922" cy="35.3922" r="35.3922" transform="matrix(-0.998345 -0.0575117 -0.0575117 0.998345 71.9217 393.758)" fill="#FBFF12"/>
<circle cx="35.3922" cy="35.3922" r="35.3922" transform="matrix(-0.998345 -0.0575117 -0.0575117 0.998345 65.0366 407.888)" fill="#41EAD4"/>
<circle cx="35.3922" cy="35.3922" r="35.3922" transform="matrix(-0.998345 -0.0575117 -0.0575117 0.998345 65.4982 418.563)" fill="#FF206E"/>
<circle cx="35.3922" cy="35.3922" r="35.3922" transform="matrix(-0.998345 -0.0575117 -0.0575117 0.998345 65.3919 429.544)" fill="#0C0F0A"/>
<circle cx="35.3922" cy="35.3922" r="35.3922" transform="matrix(-0.998345 -0.0575117 -0.0575117 0.998345 68.4955 443.628)" fill="#FBFF12"/>
<circle cx="35.3922" cy="35.3922" r="35.3922" transform="matrix(-0.998345 -0.0575117 -0.0575117 0.998345 74.9137 454.71)" fill="#41EAD4"/>
<circle cx="35.3922" cy="35.3922" r="35.3922" transform="matrix(-0.998345 -0.0575117 -0.0575117 0.998345 84.2836 463.722)" fill="#FF206E"/>
<circle cx="35.3922" cy="35.3922" r="35.3922" transform="matrix(0.96092 0.276824 0.276824 -0.96092 12.999 535.667)" fill="#41EAD4"/>
<circle cx="35.3922" cy="35.3922" r="35.3922" transform="matrix(0.96092 0.276824 0.276824 -0.96092 16.808 547.894)" fill="#FBFF12"/>
<circle cx="35.3922" cy="35.3922" r="35.3922" transform="matrix(0.96092 0.276824 0.276824 -0.96092 16.7208 562.316)" fill="#0C0F0A"/>
<circle cx="35.3922" cy="35.3922" r="35.3922" transform="matrix(0.96092 0.276824 0.276824 -0.96092 14.1891 573.002)" fill="#FF206E"/>
<circle cx="35.3922" cy="35.3922" r="35.3922" transform="matrix(0.96092 0.276824 0.276824 -0.96092 12.2792 583.514)" fill="#41EAD4"/>
<circle cx="35.3922" cy="35.3922" r="35.3922" transform="matrix(0.96092 0.276824 0.276824 -0.96092 2.44025 595.773)" fill="#FBFF12"/>
<circle cx="35.3922" cy="35.3922" r="35.3922" transform="matrix(0.96092 0.276824 0.276824 -0.96092 -8.48845 603.212)" fill="#0C0F0A"/>
<circle cx="35.3922" cy="35.3922" r="35.3922" transform="matrix(0.693769 0.720197 0.720197 -0.693769 -22.2556 583.108)" fill="#FF206E"/>
<circle cx="35.3922" cy="35.3922" r="35.3922" transform="matrix(0.693769 0.720197 0.720197 -0.693769 -29.1658 591.257)" fill="#41EAD4"/>
<circle cx="35.3922" cy="35.3922" r="35.3922" transform="matrix(0.693769 0.720197 0.720197 -0.693769 -43.8159 596.954)" fill="#FBFF12"/>
<circle cx="35.3922" cy="35.3922" r="35.3922" transform="matrix(0.693769 0.720197 0.720197 -0.693769 -57 597.932)" fill="#0C0F0A"/>
</svg>
