<svg width="430" height="258" viewBox="0 0 430 258" fill="none" xmlns="http://www.w3.org/2000/svg">
<circle cx="35.3922" cy="35.3922" r="35.3922" transform="matrix(0.308448 0.951241 0.951241 -0.308448 -49 183.833)" fill="#0C0F0A"/>
<circle cx="35.3922" cy="35.3922" r="35.3922" transform="matrix(0.308448 0.951241 0.951241 -0.308448 -36.7182 188.726)" fill="#FBFF12"/>
<circle cx="35.3922" cy="35.3922" r="35.3922" transform="matrix(0.308448 0.951241 0.951241 -0.308448 -21.0527 190.018)" fill="#41EAD4"/>
<circle cx="35.3922" cy="35.3922" r="35.3922" transform="matrix(0.308448 0.951241 0.951241 -0.308448 -11.2724 185.717)" fill="#FF206E"/>
<circle cx="35.3922" cy="35.3922" r="35.3922" transform="matrix(0.308448 0.951241 0.951241 -0.308448 -1 181.833)" fill="#0C0F0A"/>
<circle cx="35.3922" cy="35.3922" r="35.3922" transform="matrix(0.308448 0.951241 0.951241 -0.308448 11 173.833)" fill="#FBFF12"/>
<circle cx="35.3922" cy="35.3922" r="35.3922" transform="matrix(0.308448 0.951241 0.951241 -0.308448 19 163.833)" fill="#41EAD4"/>
<circle cx="35.3922" cy="35.3922" r="35.3922" transform="matrix(0.308448 0.951241 0.951241 -0.308448 24 151.833)" fill="#FF206E"/>
<circle cx="35.3922" cy="35.3922" r="35.3922" transform="matrix(-0.0904924 -0.995897 -0.995897 0.0904924 116.899 192.175)" fill="#41EAD4"/>
<circle cx="35.3922" cy="35.3922" r="35.3922" transform="matrix(-0.0904924 -0.995897 -0.995897 0.0904924 126.912 184.191)" fill="#FBFF12"/>
<circle cx="35.3922" cy="35.3922" r="35.3922" transform="matrix(-0.0904924 -0.995897 -0.995897 0.0904924 140.384 179.042)" fill="#0C0F0A"/>
<circle cx="35.3922" cy="35.3922" r="35.3922" transform="matrix(-0.0904924 -0.995897 -0.995897 0.0904924 151.261 177.526)" fill="#FF206E"/>
<circle cx="35.3922" cy="35.3922" r="35.3922" transform="matrix(-0.0904924 -0.995897 -0.995897 0.0904924 161.75 175.494)" fill="#41EAD4"/>
<circle cx="35.3922" cy="35.3922" r="35.3922" transform="matrix(-0.0904924 -0.995897 -0.995897 0.0904924 176.742 180.218)" fill="#FBFF12"/>
<circle cx="35.3922" cy="35.3922" r="35.3922" transform="matrix(-0.0904924 -0.995897 -0.995897 0.0904924 187.639 187.705)" fill="#0C0F0A"/>
<circle cx="35.3922" cy="35.3922" r="35.3922" transform="matrix(0.308448 0.951241 0.951241 -0.308448 117 137.726)" fill="#FBFF12"/>
<circle cx="35.3922" cy="35.3922" r="35.3922" transform="matrix(0.308448 0.951241 0.951241 -0.308448 132.666 139.018)" fill="#41EAD4"/>
<circle cx="35.3922" cy="35.3922" r="35.3922" transform="matrix(0.308448 0.951241 0.951241 -0.308448 142.446 134.717)" fill="#FF206E"/>
<circle cx="35.3922" cy="35.3922" r="35.3922" transform="matrix(0.308448 0.951241 0.951241 -0.308448 152.718 130.833)" fill="#0C0F0A"/>
<circle cx="35.3922" cy="35.3922" r="35.3922" transform="matrix(0.308448 0.951241 0.951241 -0.308448 164.718 122.833)" fill="#FBFF12"/>
<circle cx="35.3922" cy="35.3922" r="35.3922" transform="matrix(0.308448 0.951241 0.951241 -0.308448 172.718 112.833)" fill="#41EAD4"/>
<circle cx="35.3922" cy="35.3922" r="35.3922" transform="matrix(0.308448 0.951241 0.951241 -0.308448 177.718 100.833)" fill="#FF206E"/>
<circle cx="35.3922" cy="35.3922" r="35.3922" transform="matrix(-0.0904924 -0.995897 -0.995897 0.0904924 270.618 141.175)" fill="#41EAD4"/>
<circle cx="35.3922" cy="35.3922" r="35.3922" transform="matrix(-0.0904924 -0.995897 -0.995897 0.0904924 280.631 133.191)" fill="#FBFF12"/>
<circle cx="35.3922" cy="35.3922" r="35.3922" transform="matrix(-0.0904924 -0.995897 -0.995897 0.0904924 294.102 128.042)" fill="#0C0F0A"/>
<circle cx="35.3922" cy="35.3922" r="35.3922" transform="matrix(-0.0904924 -0.995897 -0.995897 0.0904924 304.979 126.526)" fill="#FF206E"/>
<circle cx="35.3922" cy="35.3922" r="35.3922" transform="matrix(-0.0904924 -0.995897 -0.995897 0.0904924 315.468 124.494)" fill="#41EAD4"/>
<circle cx="35.3922" cy="35.3922" r="35.3922" transform="matrix(-0.0904924 -0.995897 -0.995897 0.0904924 330.461 129.218)" fill="#FBFF12"/>
<circle cx="35.3922" cy="35.3922" r="35.3922" transform="matrix(-0.0904924 -0.995897 -0.995897 0.0904924 341.357 136.705)" fill="#0C0F0A"/>
<circle cx="35.3922" cy="35.3922" r="35.3922" transform="matrix(0.308448 0.951241 0.951241 -0.308448 267 83.7257)" fill="#FBFF12"/>
<circle cx="35.3922" cy="35.3922" r="35.3922" transform="matrix(0.308448 0.951241 0.951241 -0.308448 282.666 85.0177)" fill="#41EAD4"/>
<circle cx="35.3922" cy="35.3922" r="35.3922" transform="matrix(0.308448 0.951241 0.951241 -0.308448 292.446 80.7165)" fill="#FF206E"/>
<circle cx="35.3922" cy="35.3922" r="35.3922" transform="matrix(0.308448 0.951241 0.951241 -0.308448 302.718 76.8333)" fill="#0C0F0A"/>
<circle cx="35.3922" cy="35.3922" r="35.3922" transform="matrix(0.308448 0.951241 0.951241 -0.308448 314.718 68.8333)" fill="#FBFF12"/>
<circle cx="35.3922" cy="35.3922" r="35.3922" transform="matrix(0.308448 0.951241 0.951241 -0.308448 322.718 58.8333)" fill="#41EAD4"/>
<circle cx="35.3922" cy="35.3922" r="35.3922" transform="matrix(0.308448 0.951241 0.951241 -0.308448 327.718 46.8333)" fill="#FF206E"/>
<circle cx="35.3922" cy="35.3922" r="35.3922" transform="matrix(-0.0904924 -0.995897 -0.995897 0.0904924 420.618 87.1746)" fill="#41EAD4"/>
<circle cx="35.3922" cy="35.3922" r="35.3922" transform="matrix(-0.0904924 -0.995897 -0.995897 0.0904924 430.631 79.1909)" fill="#FBFF12"/>
<circle cx="35.3922" cy="35.3922" r="35.3922" transform="matrix(-0.0904924 -0.995897 -0.995897 0.0904924 444.102 74.0422)" fill="#0C0F0A"/>
<circle cx="35.3922" cy="35.3922" r="35.3922" transform="matrix(-0.0904924 -0.995897 -0.995897 0.0904924 454.979 72.5263)" fill="#FF206E"/>
<circle cx="35.3922" cy="35.3922" r="35.3922" transform="matrix(-0.0904924 -0.995897 -0.995897 0.0904924 465.468 70.494)" fill="#41EAD4"/>
<circle cx="35.3922" cy="35.3922" r="35.3922" transform="matrix(-0.0904924 -0.995897 -0.995897 0.0904924 480.461 75.2177)" fill="#FBFF12"/>
<circle cx="35.3922" cy="35.3922" r="35.3922" transform="matrix(-0.0904924 -0.995897 -0.995897 0.0904924 491.357 82.7046)" fill="#0C0F0A"/>
</svg>
